<?xml version="1.0" encoding="UTF-8"?>
<svg id="Capa_2" data-name="Capa 2" xmlns="http://www.w3.org/2000/svg" viewBox="0 0 917.61 852">
  <defs>
    <style>
      .cls-1 {
        fill: #008fff;
      }

      .cls-2 {
        fill: #37109f;
      }

      .cls-3 {
        fill: #00c98c;
      }

      .cls-4 {
        fill: #ff4c64;
      }
    </style>
  </defs>
  <g id="Capa_1-2" data-name="Capa 1">
    <g>
      <rect class="cls-4" y="529.37" width="31.64" height="31.63"/>
      <rect class="cls-4" x="771.59" y="488.97" width="31.64" height="31.63"/>
      <rect class="cls-4" x="803.24" y="394.07" width="31.64" height="31.64"/>
      <rect class="cls-3" x="822.79" y="214.67" width="31.51" height="31.63"/>
      <rect class="cls-3" x="503.84" y="389.5" width="31.64" height="31.63"/>
      <rect class="cls-3" x="644.53" y="647.17" width="31.64" height="31.63"/>
      <rect class="cls-1" x="671.55" y="232.59" width="31.64" height="31.63"/>
      <polygon class="cls-2" points="304.47 469.35 304.47 464.12 304.47 437.56 272.83 437.56 272.83 464.12 272.83 469.35 272.83 495.91 304.47 495.91 304.47 469.35"/>
      <rect class="cls-3" x="408.94" y="294.59" width="31.64" height="31.63"/>
      <g>
        <path class="cls-2" d="M83.97,508.75h61.61v-48.13c0-5.46,2.13-10.6,5.99-14.46l24.75-24.74c10.01-10,23.31-15.51,37.46-15.51h27.41v-31.79h-27.41c-22.65,0-43.93,8.81-59.94,24.82l-24.74,24.74c-9.87,9.87-15.3,22.98-15.3,36.94v16.35h-29.82c-28.9,0-52.41,23.51-52.41,52.4h31.79c0-11.37,9.25-20.62,20.62-20.62"/>
        <path class="cls-2" d="M507.87,807.75v-43.94c0-32.72-26.63-59.35-59.36-59.35h-101.11v33.69c0,3.05-2.48,5.54-5.54,5.54h-20.62v31.79h20.62c20.59,0,37.33-16.74,37.33-37.32v-1.9h69.32c15.2,0,27.57,12.36,27.57,27.56v43.94c0,24.4,19.85,44.25,44.26,44.25h7.93v-31.78h-7.93c-6.87,0-12.46-5.59-12.46-12.46"/>
      </g>
      <rect class="cls-1" x="440.64" y="262.95" width="31.56" height="31.63"/>
      <rect class="cls-4" x="854.3" y="183.04" width="31.51" height="31.63"/>
      <rect class="cls-3" x="257.84" y="743.74" width="31.64" height="31.63"/>
      <rect class="cls-1" x="272.83" y="374.29" width="31.64" height="31.63"/>
      <rect class="cls-1" x="31.64" y="561" width="31.64" height="31.63"/>
      <rect class="cls-1" x="739.91" y="457.34" width="31.64" height="31.64"/>
      <rect class="cls-1" x="771.59" y="362.44" width="31.64" height="31.63"/>
      <rect class="cls-1" x="472.2" y="357.89" width="31.64" height="31.6"/>
      <rect class="cls-1" x="528.28" y="788.57" width="31.64" height="31.63"/>
      <rect class="cls-4" x="289.54" y="712.12" width="31.64" height="31.63"/>
      <rect class="cls-4" x="304.47" y="495.91" width="31.64" height="31.63"/>
      <rect class="cls-3" x="771.59" y="425.71" width="31.64" height="31.63"/>
      <rect class="cls-4" x="440.56" y="326.23" width="31.64" height="31.63"/>
      <rect class="cls-4" x="703.2" y="264.23" width="31.64" height="31.63"/>
      <rect class="cls-3" x="241.19" y="405.92" width="31.64" height="31.63"/>
      <rect class="cls-1" x="376.05" y="94.89" width="31.64" height="31.63"/>
      <rect class="cls-4" x="470.91" y="31.62" width="31.64" height="31.63"/>
      <polygon class="cls-2" points="375.96 0 375.96 31.63 407.59 31.63 407.62 31.6 407.62 31.63 407.62 63.27 439.26 63.27 439.26 31.63 439.26 0 375.96 0"/>
      <path class="cls-2" d="M547.07,190.38h0c.21,0,.42,0,.63-.01-.2.01-.41.01-.63.01M565.74,139.35c0,10.61-8.63,19.24-19.24,19.24-4.4.05-9.97,1.26-56.32,29.99l-8.47,4.66v28.44c0,5.23-4.26,9.49-9.49,9.49v31.79c22.76,0,41.28-18.52,41.28-41.28v-10.69c14.94-9.09,30.74-18.27,36.24-20.7,26.64-1.67,47.8-23.87,47.8-50.92v-12.77h-31.79v12.77Z"/>
      <polygon class="cls-2" points="470.9 94.9 470.9 63.26 439.27 63.26 439.27 94.9 439.27 126.53 470.9 126.53 470.9 94.9"/>
      <path class="cls-2" d="M352.45,187.86c6.67,24.95,29.47,43.38,56.49,43.38v-31.79c-14.71,0-26.67-11.96-26.67-26.66v-15.89h-20.85c-9.44,0-17.12-7.68-17.12-17.12v-44.89h-31.79v44.89c0,23.9,17.24,43.85,39.94,48.08"/>
      <rect class="cls-3" x="344.34" y="63.26" width="31.64" height="31.63"/>
      <rect class="cls-4" x="408.94" y="231.25" width="31.64" height="31.64"/>
      <polygon class="cls-2" points="534.2 126.54 565.74 126.54 565.74 94.91 534.2 94.91 534.2 63.27 502.57 63.27 502.57 94.91 502.57 126.54 534.1 126.54 534.2 126.54"/>
      <g>
        <path class="cls-2" d="M219.67,755.51l-40.41-36.35v-16.22c0-10.29-3.8-20.16-10.69-27.8l-.56-.62-68.06-61.36c-4.03-4.4-5.83-9.43-5.83-16.2v-4.3h-31.79v4.3c0,15.14,5.05,28.11,15,38.54l.42.44,67.64,60.98c1.35,1.71,2.09,3.83,2.09,6.02v30.38l51.09,45.97,2.28,1.95c16.96,14.48,30.36,25.92,56.96,25.92v-31.79c-14.88,0-20.72-4.99-36.32-18.31l-1.82-1.55Z"/>
        <path class="cls-2" d="M885.82,214.68v46.34c0,10.89-1.88,26.21-10.82,38.72-4.42,6.19-17.04,21.36-25.09,30.91h-46.64v31.79h61.35l4.76-5.59c.98-1.15,24.14-28.34,31.49-38.63,10.95-15.33,16.74-34.91,16.74-57.19v-46.34h-31.79Z"/>
        <path class="cls-2" d="M572.34,357.71h-36.86v31.79h38.24c16.27,0,29.6-12.87,30.34-28.96h21.14c25.59,0,46.42-20.82,46.42-46.41v-18.26h-.08v-31.63h-31.64v31.63h-.08v18.26c0,8.06-6.56,14.62-14.63,14.62h-22.52c-16.27,0-29.6,12.87-30.34,28.96"/>
        <path class="cls-2" d="M336.13,391.43v104.43h31.79v-104.43c0-18.43,15-33.43,33.43-33.43h7.54v-31.79h-7.54c-35.96,0-65.22,29.25-65.22,65.21"/>
        <path class="cls-2" d="M686.41,536.52l-44.6,27.12h-28.92c-23.03,0-41.77,18.74-41.77,41.76s18.74,41.77,41.77,41.77h31.64v-31.79h-31.64c-5.5,0-9.98-4.48-9.98-9.98s4.48-9.98,9.98-9.98h37.94l52.28-31.85c11.87-7.32,25.51-11.17,39.45-11.17h29.05v-31.79h-29.05c-19.85,0-39.26,5.49-56.14,15.91"/>
        <path class="cls-2" d="M784.82,249.65l22.67-29.49c2.65-3.45,4.81-5.56,15.26-5.56v-31.79c-18.68,0-30.78,5.38-40.47,17.98l-22.66,29.49c-1.03,1.34-2.65,2.13-4.34,2.13h-20.44v31.79h20.44c11.5,0,22.54-5.44,29.55-14.55"/>
        <path class="cls-2" d="M707.84,678.81h-31.64v31.63h-.08v28.98l-10.03,23.74c-1.82,4.31-6.02,7.09-10.7,7.09h-21.09l-15.56,32.71c-4.97,10.45-15.65,17.19-27.22,17.19v.08h-31.6v31.63h31.6v.08c23.77,0,45.72-13.87,55.93-35.32l6.94-14.58h1.01c17.49,0,33.18-10.41,39.99-26.51l12.53-29.67v-35.41h-.07v-31.63Z"/>
      </g>
    </g>
  </g>
</svg>